/* XPM */
static char * eon_cell_xpm[] = {
"16 16 6 1",
" 	c None",
".	c #000000",
"+	c #FFD500",
"@	c #00C70E",
"#	c #0050C7",
"$	c #FB0000",
"                ",
"                ",
"                ",
"                ",
"     ......     ",
"    .++++@@.    ",
"    .++++@@.    ",
"    .++#$@@.    ",
"    .++#$@@.    ",
"    .++@@@@.    ",
"    .++@@@@.    ",
"     ......     ",
"                ",
"                ",
"                ",
"                "};
