<?xml version="1.0" encoding="UTF-8" standalone="no"?>
<!-- Created with Inkscape (http://www.inkscape.org/) -->

<svg
   xmlns:dc="http://purl.org/dc/elements/1.1/"
   xmlns:cc="http://creativecommons.org/ns#"
   xmlns:rdf="http://www.w3.org/1999/02/22-rdf-syntax-ns#"
   xmlns:svg="http://www.w3.org/2000/svg"
   xmlns="http://www.w3.org/2000/svg"
   xmlns:sodipodi="http://sodipodi.sourceforge.net/DTD/sodipodi-0.dtd"
   xmlns:inkscape="http://www.inkscape.org/namespaces/inkscape"
   width="744.09448819"
   height="1052.3622047"
   id="svg2"
   version="1.1"
   inkscape:version="0.48.0 r9654"
   sodipodi:docname="ioforms.svg">
  <defs
     id="defs4">
    <linearGradient
       id="linearGradient3801">
      <stop
         id="stop3803"
         offset="0"
         style="stop-color:#13ff00;stop-opacity:1;" />
      <stop
         style="stop-color:#e4ff00;stop-opacity:0.72156864;"
         offset="0.5"
         id="stop3807" />
      <stop
         id="stop3805"
         offset="1"
         style="stop-color:#00ffe5;stop-opacity:0.44705883;" />
    </linearGradient>
    <linearGradient
       id="linearGradient3789">
      <stop
         style="stop-color:#ffb600;stop-opacity:1;"
         offset="0"
         id="stop3791" />
      <stop
         style="stop-color:#00ff2e;stop-opacity:0.44705883;"
         offset="1"
         id="stop3793" />
    </linearGradient>
  </defs>
  <sodipodi:namedview
     id="base"
     pagecolor="#ffffff"
     bordercolor="#666666"
     borderopacity="1.0"
     inkscape:pageopacity="0.0"
     inkscape:pageshadow="2"
     inkscape:zoom="3.959798"
     inkscape:cx="243.16743"
     inkscape:cy="631.3971"
     inkscape:document-units="px"
     inkscape:current-layer="layer1"
     showgrid="false"
     inkscape:window-width="1280"
     inkscape:window-height="748"
     inkscape:window-x="0"
     inkscape:window-y="24"
     inkscape:window-maximized="1" />
  <metadata
     id="metadata7">
    <rdf:RDF>
      <cc:Work
         rdf:about="">
        <dc:format>image/svg+xml</dc:format>
        <dc:type
           rdf:resource="http://purl.org/dc/dcmitype/StillImage" />
        <dc:title></dc:title>
      </cc:Work>
    </rdf:RDF>
  </metadata>
  <g
     inkscape:label="Layer 1"
     inkscape:groupmode="layer"
     id="layer1">
    <g
       id="g3896"
       inkscape:export-filename="/home/dto/images/logo.png"
       inkscape:export-xdpi="98.069756"
       inkscape:export-ydpi="98.069756">
      <path
         d="m 169.41092,371.16326 -6.48,0 0,-4.08 6.48,0 0,4.08 m 0,26.96 -6.48,0 0,-22.4 6.48,0 0,22.4"
         style="font-size:40px;font-style:normal;font-variant:normal;font-weight:normal;font-stretch:normal;line-height:125%;letter-spacing:0px;word-spacing:0px;fill:#ff8400;fill-opacity:1;stroke:none;font-family:Sui Generis;-inkscape-font-specification:Sui Generis"
         id="path3758"
         inkscape:connector-curvature="0" />
      <path
         d="m 199.32342,389.44326 c -3e-5,2.40001 -0.85336,4.45334 -2.56,6.16 -1.68003,1.68 -3.72002,2.52 -6.12,2.52 l -8.64,0 c -2.40001,0 -4.45334,-0.84 -6.16,-2.52 -1.68,-1.70666 -2.52,-3.75999 -2.52,-6.16 l 0,-5.04 c 0,-2.39998 0.84,-4.43998 2.52,-6.12 1.70666,-1.70664 3.75999,-2.55998 6.16,-2.56 l 8.64,0 c 2.39998,2e-5 4.43997,0.85336 6.12,2.56 1.70664,1.68002 2.55997,3.72002 2.56,6.12 l 0,5.04 m -6.52,0 0,-5.04 c -2e-5,-0.58665 -0.21336,-1.09332 -0.64,-1.52 -0.40002,-0.42665 -0.90669,-0.63998 -1.52,-0.64 l -8.64,0 c -0.61334,2e-5 -1.13334,0.21335 -1.56,0.64 -0.40001,0.42668 -0.60001,0.93335 -0.6,1.52 l 0,5.04 c -1e-5,0.61334 0.19999,1.13334 0.6,1.56 0.42666,0.42668 0.94666,0.64001 1.56,0.64 l 8.64,0 c 0.61331,10e-6 1.11998,-0.21332 1.52,-0.64 0.42664,-0.42666 0.63998,-0.94666 0.64,-1.56"
         style="font-size:40px;font-style:normal;font-variant:normal;font-weight:normal;font-stretch:normal;line-height:125%;letter-spacing:0px;word-spacing:0px;fill:#ff8400;fill-opacity:1;stroke:none;font-family:Sui Generis;-inkscape-font-specification:Sui Generis"
         id="path3760"
         inkscape:connector-curvature="0" />
      <path
         d="m 214.53654,375.76326 -0.72,6.16 -3.08,0 0,16.2 -6.52,0 0,-16.2 -2.24,0 0.72,-6.16 1.64,0 c 0.58667,-5.19997 3.53333,-8.4533 8.84,-9.76 0.26666,2.00003 0.51999,4.01336 0.76,6.04 -0.80001,3e-5 -1.56001,0.34669 -2.28,1.04 -0.69334,0.69336 -1.04001,1.42669 -1.04,2.2 -10e-6,0.18669 0.0267,0.34669 0.08,0.48 l 3.84,0"
         style="font-size:40px;font-style:normal;font-variant:normal;font-weight:normal;font-stretch:normal;line-height:125%;letter-spacing:0px;word-spacing:0px;fill:#808080;fill-opacity:1;stroke:none;font-family:Sui Generis;-inkscape-font-specification:Sui Generis"
         id="path3762"
         inkscape:connector-curvature="0" />
      <path
         d="m 241.82342,389.44326 c -3e-5,2.40001 -0.85336,4.45334 -2.56,6.16 -1.68003,1.68 -3.72002,2.52 -6.12,2.52 l -8.64,0 c -2.40001,0 -4.45334,-0.84 -6.16,-2.52 -1.68,-1.70666 -2.52,-3.75999 -2.52,-6.16 l 0,-5.04 c 0,-2.39998 0.84,-4.43998 2.52,-6.12 1.70666,-1.70664 3.75999,-2.55998 6.16,-2.56 l 8.64,0 c 2.39998,2e-5 4.43997,0.85336 6.12,2.56 1.70664,1.68002 2.55997,3.72002 2.56,6.12 l 0,5.04 m -6.52,0 0,-5.04 c -2e-5,-0.58665 -0.21336,-1.09332 -0.64,-1.52 -0.40002,-0.42665 -0.90669,-0.63998 -1.52,-0.64 l -8.64,0 c -0.61334,2e-5 -1.13334,0.21335 -1.56,0.64 -0.40001,0.42668 -0.60001,0.93335 -0.6,1.52 l 0,5.04 c -1e-5,0.61334 0.19999,1.13334 0.6,1.56 0.42666,0.42668 0.94666,0.64001 1.56,0.64 l 8.64,0 c 0.61331,10e-6 1.11998,-0.21332 1.52,-0.64 0.42664,-0.42666 0.63998,-0.94666 0.64,-1.56"
         style="font-size:40px;font-style:normal;font-variant:normal;font-weight:normal;font-stretch:normal;line-height:125%;letter-spacing:0px;word-spacing:0px;fill:#808080;fill-opacity:1;stroke:none;font-family:Sui Generis;-inkscape-font-specification:Sui Generis"
         id="path3764"
         inkscape:connector-curvature="0" />
      <path
         d="m 259.59654,375.68326 -0.72,6.44 c -1.62668,-0.95998 -3.00001,-1.31998 -4.12,-1.08 -2.05334,0.48002 -3.08,2.58668 -3.08,6.32 l 0,10.76 -6.52,0 0,-22.44 6.44,0 0,3.32 c 0.69333,-1.73331 1.74666,-2.83998 3.16,-3.32 0.82666,-0.29331 1.79999,-0.38664 2.92,-0.28 0.55999,0.0267 1.19999,0.12002 1.92,0.28"
         style="font-size:40px;font-style:normal;font-variant:normal;font-weight:normal;font-stretch:normal;line-height:125%;letter-spacing:0px;word-spacing:0px;fill:#808080;fill-opacity:1;stroke:none;font-family:Sui Generis;-inkscape-font-specification:Sui Generis"
         id="path3766"
         inkscape:connector-curvature="0" />
      <path
         d="m 298.64092,398.12326 -6.48,0 0,-13.72 c -3e-5,-0.58665 -0.21337,-1.09332 -0.64,-1.52 -0.4267,-0.42665 -0.9467,-0.63998 -1.56,-0.64 l -3.52,0 c -1.97336,2e-5 -2.96003,0.98668 -2.96,2.96 l 0,12.92 -6.48,0 0,-13.72 c -2e-5,-0.58665 -0.21335,-1.09332 -0.64,-1.52 -0.42668,-0.42665 -0.94668,-0.63998 -1.56,-0.64 l -3.52,0 c -1.97334,2e-5 -2.96001,0.98668 -2.96,2.96 l 0,12.92 -6.48,0 0,-22.4 6.48,0 0,3.6 c 0.47999,-1.27998 1.15999,-2.19998 2.04,-2.76 0.87999,-0.55998 1.75999,-0.83998 2.64,-0.84 l 2.52,0 c 1.35998,2e-5 2.54665,0.33336 3.56,1 1.01331,0.66669 1.82664,1.74669 2.44,3.24 0.34664,-1.27998 0.99998,-2.27998 1.96,-3 1.09331,-0.82664 2.41331,-1.23998 3.96,-1.24 l 2.92,0 c 2.3733,2e-5 4.34663,0.85336 5.92,2.56 1.57329,1.68002 2.35996,3.72002 2.36,6.12 l 0,13.72"
         style="font-size:40px;font-style:normal;font-variant:normal;font-weight:normal;font-stretch:normal;line-height:125%;letter-spacing:0px;word-spacing:0px;fill:#808080;fill-opacity:1;stroke:none;font-family:Sui Generis;-inkscape-font-specification:Sui Generis"
         id="path3768"
         inkscape:connector-curvature="0" />
      <path
         d="m 327.33654,391.20326 c -2e-5,1.06667 -0.25336,2.06667 -0.76,3 -1.46669,2.61334 -4.16002,3.92 -8.08,3.92 l -16.32,0 0.8,-6.48 15.28,0 c 1.22665,10e-6 1.83998,-0.47999 1.84,-1.44 -2e-5,-0.90666 -0.61335,-1.35999 -1.84,-1.36 l -7.48,0 c -5.44,1e-5 -8.16,-2.01332 -8.16,-6.04 0,-1.03998 0.25333,-2.01331 0.76,-2.92 1.54667,-2.77331 4.49333,-4.15998 8.84,-4.16 l 13.68,0 -0.8,6.52 -13.56,0 c -1.25334,2e-5 -1.85334,0.48002 -1.8,1.44 0.0533,0.93335 0.65333,1.40001 1.8,1.4 l 7.32,0 c 5.65331,1e-5 8.47998,2.04001 8.48,6.12"
         style="font-size:40px;font-style:normal;font-variant:normal;font-weight:normal;font-stretch:normal;line-height:125%;letter-spacing:0px;word-spacing:0px;fill:#808080;fill-opacity:1;stroke:none;font-family:Sui Generis;-inkscape-font-specification:Sui Generis"
         id="path3770"
         inkscape:connector-curvature="0" />
    </g>
    <g
       id="g3869"
       transform="matrix(0.18777143,0,0,0.18777143,201.35747,362.47155)"
       inkscape:export-filename="/home/dto/images/mrblock.png"
       inkscape:export-xdpi="347.25"
       inkscape:export-ydpi="347.25">
      <path
         inkscape:connector-curvature="0"
         id="path3855"
         d="m 278.47965,431.783 c -5.73353,4e-5 -10.70455,1.90731 -14.78169,5.7106 -4.01345,3.74397 -5.9724,8.3013 -5.9724,13.64972 l 0,11.21227 c 0,5.34848 1.95895,9.91602 5.9724,13.71936 4.07714,3.74392 9.04816,5.64096 14.78169,5.64096 l 20.60478,0 c 5.73345,0 10.61885,-1.89704 14.63237,-5.64096 4.0771,-3.80334 6.12164,-8.37088 6.12171,-13.71936 l 0,-11.21227 c -7e-5,-5.34842 -2.04461,-9.90575 -6.12171,-13.64972 -4.01352,-3.80329 -8.89892,-5.71056 -14.63237,-5.7106 l -20.60478,0 z"
         style="font-size:40px;font-style:normal;font-variant:normal;font-weight:normal;font-stretch:normal;line-height:125%;letter-spacing:0px;word-spacing:0px;fill:#ff8400;fill-opacity:1;stroke:none;font-family:Sui Generis;-inkscape-font-specification:Sui Generis" />
      <g
         transform="translate(-0.625305,0)"
         id="g3865">
        <path
           d="m 288.34618,451.38057 c -2e-5,1.33009 -0.47294,2.46805 -1.41876,3.41388 -0.93108,0.93106 -2.06164,1.39659 -3.39172,1.39659 l -4.7883,0 c -1.3301,0 -2.46806,-0.46553 -3.41389,-1.39659 -0.93106,-0.94583 -1.39659,-2.08379 -1.39659,-3.41388 l 0,-2.79318 c 0,-1.33008 0.46553,-2.46065 1.39659,-3.39172 0.94583,-0.94583 2.08379,-1.41875 3.41389,-1.41876 l 4.7883,0 c 1.33008,1e-5 2.46064,0.47293 3.39172,1.41876 0.94582,0.93107 1.41874,2.06164 1.41876,3.39172 l 0,2.79318 m -3.6134,0 0,-2.79318 c -10e-6,-0.32513 -0.11824,-0.60592 -0.35469,-0.84239 -0.22169,-0.23645 -0.50249,-0.35468 -0.84239,-0.35469 l -4.7883,0 c -0.33992,10e-6 -0.6281,0.11824 -0.86456,0.35469 -0.22169,0.23647 -0.33253,0.51726 -0.33252,0.84239 l 0,2.79318 c -10e-6,0.33991 0.11083,0.62809 0.33252,0.86455 0.23646,0.23647 0.52464,0.3547 0.86456,0.35469 l 4.7883,0 c 0.3399,1e-5 0.6207,-0.11822 0.84239,-0.35469 0.23645,-0.23646 0.35468,-0.52464 0.35469,-0.86455"
           style="font-size:40px;font-style:normal;font-variant:normal;font-weight:normal;font-stretch:normal;line-height:125%;letter-spacing:0px;word-spacing:0px;fill:#ffffff;fill-opacity:1;stroke:none;font-family:Sui Generis;-inkscape-font-specification:Sui Generis"
           id="path3851"
           inkscape:connector-curvature="0" />
        <path
           inkscape:connector-curvature="0"
           id="path3853"
           style="font-size:40px;font-style:normal;font-variant:normal;font-weight:normal;font-stretch:normal;line-height:125%;letter-spacing:0px;word-spacing:0px;fill:#ffffff;fill-opacity:1;stroke:none;font-family:Sui Generis;-inkscape-font-specification:Sui Generis"
           d="m 304.87776,451.26491 c -2e-5,1.33009 -0.47293,2.46805 -1.41876,3.41388 -0.93107,0.93106 -2.06164,1.39659 -3.39172,1.39659 l -4.7883,0 c -1.33009,0 -2.46805,-0.46553 -3.41389,-1.39659 -0.93106,-0.94583 -1.39659,-2.08379 -1.39659,-3.41388 l 0,-2.79318 c 0,-1.33008 0.46553,-2.46065 1.39659,-3.39172 0.94584,-0.94582 2.0838,-1.41875 3.41389,-1.41876 l 4.7883,0 c 1.33008,1e-5 2.46065,0.47294 3.39172,1.41876 0.94583,0.93107 1.41874,2.06164 1.41876,3.39172 l 0,2.79318 m -3.6134,0 0,-2.79318 c -1e-5,-0.32513 -0.11824,-0.60592 -0.35469,-0.84239 -0.22169,-0.23645 -0.50249,-0.35468 -0.84239,-0.35469 l -4.7883,0 c -0.33992,10e-6 -0.6281,0.11824 -0.86456,0.35469 -0.22169,0.23647 -0.33253,0.51726 -0.33252,0.84239 l 0,2.79318 c -1e-5,0.33991 0.11083,0.6281 0.33252,0.86455 0.23646,0.23647 0.52464,0.3547 0.86456,0.35469 l 4.7883,0 c 0.3399,10e-6 0.6207,-0.11822 0.84239,-0.35469 0.23645,-0.23645 0.35468,-0.52464 0.35469,-0.86455" />
      </g>
      <text
         transform="matrix(0,1,-1,0,0,0)"
         sodipodi:linespacing="125%"
         id="text3861"
         y="-274.36203"
         x="457.92059"
         style="font-size:40px;font-style:normal;font-variant:normal;font-weight:normal;font-stretch:normal;line-height:125%;letter-spacing:0px;word-spacing:0px;fill:#ffffff;fill-opacity:1;stroke:none;font-family:Sui Generis;-inkscape-font-specification:Sui Generis"
         xml:space="preserve"><tspan
           y="-274.36203"
           x="457.92059"
           id="tspan3863"
           sodipodi:role="line">)</tspan></text>
    </g>
  </g>
</svg>
